<mxfile host="app.diagrams.net" modified="2023-07-27T19:11:00.916Z" agent="Mozilla/5.0 (Windows NT 10.0; Win64; x64) AppleWebKit/537.36 (KHTML, like Gecko) Chrome/115.0.0.0 Safari/537.36 Edg/115.0.1901.183" etag="y-fjjXw60xAARyh-0VZ-" version="21.6.5" type="github">
  <diagram name="Page-1" id="EFFb2B2qbuS51o3diVam">
    <mxGraphModel dx="813" dy="540" grid="1" gridSize="10" guides="1" tooltips="1" connect="1" arrows="1" fold="1" page="1" pageScale="1" pageWidth="850" pageHeight="1100" math="0" shadow="0">
      <root>
        <mxCell id="0" />
        <mxCell id="1" parent="0" />
      </root>
    </mxGraphModel>
  </diagram>
</mxfile>
